# Blender v2.78 (sub 0) OBJ File: 'EnfinIlluminati.blend'
# www.blender.org
mtllib IlluminatiFIN.mtl
o Cube
v -1.001474 0.178186 -1.000000
v -1.001474 0.178186 1.000000
v 0.998524 0.181136 1.000000
v 0.998524 0.181136 -1.000000
v 0.000350 1.813234 0.064760
v -1.001474 0.181284 0.999997
v -1.001474 0.179015 -1.000001
v 0.998524 0.176065 -0.999998
v 0.998524 0.178334 1.000001
vt 0.3220 0.2873
vt 0.6024 0.2873
vt 0.6024 0.5678
vt 0.3220 0.5678
vt 0.1833 0.2372
vt 0.8042 0.2388
vt 0.4914 0.8376
vt 0.1760 0.2323
vt 0.7786 0.2327
vt 0.4840 0.8761
vt 0.4944 0.8781
vt 0.1299 0.2188
vt 0.8341 0.2237
vt 0.4965 0.8676
vt 0.1371 0.2208
vt 0.8237 0.2276
vt 0.3220 0.2873
vt 0.6024 0.2873
vt 0.6024 0.5678
vt 0.3220 0.5678
vn -0.0015 1.0000 -0.0000
vn 0.8531 0.5217 -0.0000
vn -0.0008 0.5460 -0.8378
vn -0.8527 0.5224 0.0000
vn -0.0007 0.4968 0.8678
vn -0.0015 -1.0000 0.0011
usemtl Material
s off
f 1/1/1 2/2/1 3/3/1 4/4/1
f 3/5/2 4/6/2 5/7/2
f 4/8/3 1/9/3 5/10/3
f 5/11/4 1/12/4 2/13/4
f 5/14/5 2/15/5 3/16/5
f 6/17/6 7/18/6 8/19/6 9/20/6
